<?xml version="1.0" encoding="UTF-8" standalone="no"?>
<!-- Created with Inkscape (http://www.inkscape.org/) -->

<svg
   xmlns:dc="http://purl.org/dc/elements/1.1/"
   xmlns:cc="http://creativecommons.org/ns#"
   xmlns:rdf="http://www.w3.org/1999/02/22-rdf-syntax-ns#"
   xmlns:svg="http://www.w3.org/2000/svg"
   xmlns="http://www.w3.org/2000/svg"
   xmlns:sodipodi="http://sodipodi.sourceforge.net/DTD/sodipodi-0.dtd"
   xmlns:inkscape="http://www.inkscape.org/namespaces/inkscape"
   width="256"
   height="256"
   viewBox="0 0 256 256"
   id="svg3366"
   version="1.1"
   inkscape:version="0.91 r13725"
   sodipodi:docname="icon.svg"
   inkscape:export-filename="C:\Users\mjirik\projects\quanta\icon\icon.png"
   inkscape:export-xdpi="90"
   inkscape:export-ydpi="90">
  <defs
     id="defs3368" />
  <sodipodi:namedview
     id="base"
     pagecolor="#ffffff"
     bordercolor="#666666"
     borderopacity="1.0"
     inkscape:pageopacity="0.0"
     inkscape:pageshadow="2"
     inkscape:zoom="1.979899"
     inkscape:cx="78.572363"
     inkscape:cy="122.79672"
     inkscape:document-units="px"
     inkscape:current-layer="layer1"
     showgrid="false"
     units="px"
     inkscape:window-width="1536"
     inkscape:window-height="801"
     inkscape:window-x="-8"
     inkscape:window-y="-8"
     inkscape:window-maximized="1" />
  <metadata
     id="metadata3371">
    <rdf:RDF>
      <cc:Work
         rdf:about="">
        <dc:format>image/svg+xml</dc:format>
        <dc:type
           rdf:resource="http://purl.org/dc/dcmitype/StillImage" />
        <dc:title></dc:title>
      </cc:Work>
    </rdf:RDF>
  </metadata>
  <g
     inkscape:label="Vrstva 1"
     inkscape:groupmode="layer"
     id="layer1"
     transform="translate(0,-796.3622)">
    <path
       style="fill:#ff00ff;fill-opacity:1;fill-rule:evenodd;stroke:none;stroke-width:1px;stroke-linecap:butt;stroke-linejoin:miter;stroke-opacity:1"
       d="m -5.7885815,1063.3477 -0.6619252,-11.2179 -3.9715623,-46.8511 c 35.75425,-21.19768 61.96855,-55.34409 82.078961,-88.42181 20.110409,-33.0772 12.302926,-81.1992 0.661927,-126.69465 l 11.252763,-7.25822 21.106618,5.5572 c 19.55896,130.88997 48.09825,65.1782 132.41407,-0.1411 l 40.45261,8.83435 c 0,0 -91.84951,75.25003 -99.97966,83.40764 -8.13015,8.15707 -141.412415,105.57006 -2.64771,89.08137 119.52979,-12.67851 90.02208,-4.61915 90.02208,-4.61915 l -1.32385,43.55147 c -32.44912,-2.395 -64.59729,1.5918 -118.48495,6.5987 -53.887657,5.0064 -98.656039,11.2074 -150.9193715,48.1716 z"
       id="path3376"
       inkscape:connector-curvature="0"
       sodipodi:nodetypes="ccczccccczccczc" />
  </g>
</svg>
