<?xml version="1.0" standalone="no"?>
<!DOCTYPE svg PUBLIC "-//W3C//DTD SVG 1.1//EN"
 "http://www.w3.org/Graphics/SVG/1.1/DTD/svg11.dtd">

<svg version="1.1" xmlns="http://www.w3.org/2000/svg"
  xmlns:xlink="http://www.w3.org/1999/xlink">
<!-- automatically generated by aafigure -->
<text x="98.0" y="81.9" font-family="sans-serif" font-size="14.0" fill="#000000" >
  redirect to provider, with
</text>
<text x="98.0" y="95.9" font-family="sans-serif" font-size="14.0" fill="#000000" >
  secret, scopes, &amp; state
</text>
<text x="98.0" y="123.9" font-family="sans-serif" font-size="14.0" fill="#000000" >
  follow redirect
</text>
<text x="98.0" y="151.9" font-family="sans-serif" font-size="14.0" fill="#000000" >
  redirect to consumer, with authorization code &amp; state
</text>
<text x="98.0" y="179.9" font-family="sans-serif" font-size="14.0" fill="#000000" >
  follow redirect
</text>
<text x="546.0" y="221.9" font-family="sans-serif" font-size="14.0" fill="#000000" >
  send access token
</text>
<line x1="7.0" y1="7.0" x2="147.0" y2="7.0" stroke="#000000" stroke-width="2.0" />
<line x1="441.0" y1="7.0" x2="609.0" y2="7.0" stroke="#000000" stroke-width="2.0" />
<line x1="833.0" y1="7.0" x2="987.0" y2="7.0" stroke="#000000" stroke-width="2.0" />
<line x1="7.0" y1="7.0" x2="7.0" y2="35.0" stroke="#000000" stroke-width="2.0" />
<line x1="147.0" y1="7.0" x2="147.0" y2="35.0" stroke="#000000" stroke-width="2.0" />
<line x1="441.0" y1="7.0" x2="441.0" y2="35.0" stroke="#000000" stroke-width="2.0" />
<line x1="609.0" y1="7.0" x2="609.0" y2="35.0" stroke="#000000" stroke-width="2.0" />
<line x1="833.0" y1="7.0" x2="833.0" y2="35.0" stroke="#000000" stroke-width="2.0" />
<line x1="987.0" y1="7.0" x2="987.0" y2="35.0" stroke="#000000" stroke-width="2.0" />
<line x1="7.0" y1="35.0" x2="77.0" y2="35.0" stroke="#000000" stroke-width="2.0" />
<line x1="77.0" y1="35.0" x2="147.0" y2="35.0" stroke="#000000" stroke-width="2.0" />
<line x1="441.0" y1="35.0" x2="525.0" y2="35.0" stroke="#000000" stroke-width="2.0" />
<line x1="525.0" y1="35.0" x2="609.0" y2="35.0" stroke="#000000" stroke-width="2.0" />
<line x1="833.0" y1="35.0" x2="903.0" y2="35.0" stroke="#000000" stroke-width="2.0" />
<line x1="903.0" y1="35.0" x2="987.0" y2="35.0" stroke="#000000" stroke-width="2.0" />
<line x1="77.0" y1="35.0" x2="77.0" y2="238.0" stroke="#000000" stroke-width="2.0" />
<line x1="525.0" y1="35.0" x2="525.0" y2="126.0" stroke="#000000" stroke-width="2.0" />
<line x1="903.0" y1="35.0" x2="903.0" y2="238.0" stroke="#000000" stroke-width="2.0" />
<g>
    <line x1="518.0" y1="63.0" x2="507.5" y2="66.5" stroke="#000000" stroke-width="2.0" />
    <line x1="518.0" y1="63.0" x2="507.5" y2="59.5" stroke="#000000" stroke-width="2.0" />
    <line x1="84.0" y1="63.0" x2="518.0" y2="63.0" stroke="#000000" stroke-width="2.0" />
</g>
<g>
    <line x1="84.0" y1="105.0" x2="94.5" y2="101.5" stroke="#000000" stroke-width="2.0" />
    <line x1="84.0" y1="105.0" x2="94.5" y2="108.5" stroke="#000000" stroke-width="2.0" />
    <line x1="84.0" y1="105.0" x2="518.0" y2="105.0" stroke="#000000" stroke-width="2.0" />
</g>
<g>
    <line x1="896.0" y1="133.0" x2="885.5" y2="136.5" stroke="#000000" stroke-width="2.0" />
    <line x1="896.0" y1="133.0" x2="885.5" y2="129.5" stroke="#000000" stroke-width="2.0" />
    <line x1="84.0" y1="133.0" x2="896.0" y2="133.0" stroke="#000000" stroke-width="2.0" />
</g>
<g>
    <line x1="84.0" y1="161.0" x2="94.5" y2="157.5" stroke="#000000" stroke-width="2.0" />
    <line x1="84.0" y1="161.0" x2="94.5" y2="164.5" stroke="#000000" stroke-width="2.0" />
    <line x1="84.0" y1="161.0" x2="896.0" y2="161.0" stroke="#000000" stroke-width="2.0" />
</g>
<line x1="525.0" y1="168.0" x2="525.0" y2="238.0" stroke="#000000" stroke-width="2.0" />
<g>
    <line x1="518.0" y1="189.0" x2="507.5" y2="192.5" stroke="#000000" stroke-width="2.0" />
    <line x1="518.0" y1="189.0" x2="507.5" y2="185.5" stroke="#000000" stroke-width="2.0" />
    <line x1="84.0" y1="189.0" x2="518.0" y2="189.0" stroke="#000000" stroke-width="2.0" />
</g>
<g>
    <line x1="896.0" y1="203.0" x2="885.5" y2="206.5" stroke="#000000" stroke-width="2.0" />
    <line x1="896.0" y1="203.0" x2="885.5" y2="199.5" stroke="#000000" stroke-width="2.0" />
    <line x1="532.0" y1="203.0" x2="896.0" y2="203.0" stroke="#000000" stroke-width="2.0" />
</g>
<g>
    <line x1="532.0" y1="231.0" x2="542.5" y2="227.5" stroke="#000000" stroke-width="2.0" />
    <line x1="532.0" y1="231.0" x2="542.5" y2="234.5" stroke="#000000" stroke-width="2.0" />
    <line x1="532.0" y1="231.0" x2="896.0" y2="231.0" stroke="#000000" stroke-width="2.0" />
</g>
<text x="42.0" y="25.9" font-family="sans-serif" font-size="14.0" fill="#000000" >
  Client
</text>
<text x="476.0" y="25.9" font-family="sans-serif" font-size="14.0" fill="#000000" >
  Consumer
</text>
<text x="854.0" y="25.9" font-family="sans-serif" font-size="14.0" fill="#000000" >
  Provider
</text>
<text x="98.0" y="53.9" font-family="sans-serif" font-size="14.0" fill="#000000" >
  start dance
</text>
<text x="924.0" y="137.9" font-family="sans-serif" font-size="14.0" fill="#000000" >
  user
</text>
<text x="924.0" y="151.9" font-family="sans-serif" font-size="14.0" fill="#000000" >
  grants
</text>
<text x="924.0" y="165.9" font-family="sans-serif" font-size="14.0" fill="#000000" >
  consent
</text>
<text x="546.0" y="193.9" font-family="sans-serif" font-size="14.0" fill="#000000" >
  send secret &amp; auth code
</text>
</svg>
